<svg width="48" height="48" viewBox="0 0 48 48" fill="none" xmlns="http://www.w3.org/2000/svg">
<g clip-path="url(#clip0_1_388)">
<path d="M12 30C11.8011 30.0064 11.6078 29.9334 11.4626 29.7973C11.3175 29.6611 11.2323 29.4729 11.226 29.274C11.2196 29.0751 11.2925 28.8818 11.4287 28.7366C11.5648 28.5915 11.7531 28.5064 11.952 28.5C12.7215 28.3762 18.102 26.5597 19.5382 22.2615C19.8037 21.4665 20.0257 20.7525 20.2237 20.1135C21.2497 16.8165 21.8145 15 24.75 15C27.75 15 27.75 19.695 27.75 22.5C27.75 25.1752 25.434 28.0957 25.335 28.2187C25.2096 28.3709 25.0295 28.4675 24.8334 28.4878C24.6374 28.5081 24.4412 28.4505 24.2873 28.3273C24.1335 28.2041 24.0343 28.0253 24.0113 27.8295C23.9882 27.6338 24.0432 27.4368 24.1642 27.2812C24.1852 27.2557 26.25 24.6457 26.25 22.5C26.25 20.7045 26.25 16.5 24.75 16.5C22.9807 16.5 22.6987 17.2095 21.6562 20.5605C21.4552 21.2077 21.2302 21.9315 20.9617 22.7355C19.188 28.0567 12.5077 30 12 30Z" fill="#ED323D"/>
<path d="M33 33H30C29.8011 33 29.6103 32.921 29.4697 32.7803C29.329 32.6397 29.25 32.4489 29.25 32.25C29.25 32.0511 29.329 31.8603 29.4697 31.7197C29.6103 31.579 29.8011 31.5 30 31.5H33C33.3978 31.5 33.7794 31.342 34.0607 31.0607C34.342 30.7794 34.5 30.3978 34.5 30C34.5 29.6022 34.342 29.2206 34.0607 28.9393C33.7794 28.658 33.3978 28.5 33 28.5H24.75C24.5511 28.5 24.3603 28.421 24.2197 28.2803C24.079 28.1397 24 27.9489 24 27.75C24 27.5511 24.079 27.3603 24.2197 27.2197C24.3603 27.079 24.5511 27 24.75 27H33C33.7956 27 34.5587 27.3161 35.1213 27.8787C35.6839 28.4413 36 29.2044 36 30C36 30.7956 35.6839 31.5587 35.1213 32.1213C34.5587 32.6839 33.7956 33 33 33Z" fill="#ED323D"/>
<path d="M32.25 37.5H30C29.8011 37.5 29.6103 37.421 29.4697 37.2803C29.329 37.1397 29.25 36.9489 29.25 36.75C29.25 36.5511 29.329 36.3603 29.4697 36.2197C29.6103 36.079 29.8011 36 30 36H32.25C32.6478 36 33.0294 35.842 33.3107 35.5607C33.592 35.2794 33.75 34.8978 33.75 34.5C33.75 34.1022 33.592 33.7206 33.3107 33.4393C33.0294 33.158 32.6478 33 32.25 33H30C29.8011 33 29.6103 32.921 29.4697 32.7803C29.329 32.6397 29.25 32.4489 29.25 32.25C29.25 32.0511 29.329 31.8603 29.4697 31.7197C29.6103 31.579 29.8011 31.5 30 31.5H32.25C33.0456 31.5 33.8087 31.8161 34.3713 32.3787C34.9339 32.9413 35.25 33.7044 35.25 34.5C35.25 35.2956 34.9339 36.0587 34.3713 36.6213C33.8087 37.1839 33.0456 37.5 32.25 37.5Z" fill="#ED323D"/>
<path d="M31.5 42H30C29.8011 42 29.6103 41.921 29.4697 41.7803C29.329 41.6397 29.25 41.4489 29.25 41.25C29.25 41.0511 29.329 40.8603 29.4697 40.7197C29.6103 40.579 29.8011 40.5 30 40.5H31.5C31.8978 40.5 32.2794 40.342 32.5607 40.0607C32.842 39.7794 33 39.3978 33 39C33 38.6022 32.842 38.2206 32.5607 37.9393C32.2794 37.658 31.8978 37.5 31.5 37.5H30C29.8011 37.5 29.6103 37.421 29.4697 37.2803C29.329 37.1397 29.25 36.9489 29.25 36.75C29.25 36.5511 29.329 36.3603 29.4697 36.2197C29.6103 36.079 29.8011 36 30 36H31.5C32.2956 36 33.0587 36.3161 33.6213 36.8787C34.1839 37.4413 34.5 38.2044 34.5 39C34.5 39.7956 34.1839 40.5587 33.6213 41.1213C33.0587 41.6839 32.2956 42 31.5 42Z" fill="#ED323D"/>
<path d="M30.75 46.5H12C11.8011 46.5 11.6103 46.421 11.4697 46.2803C11.329 46.1397 11.25 45.9489 11.25 45.75C11.25 45.5511 11.329 45.3603 11.4697 45.2197C11.6103 45.079 11.8011 45 12 45H30.75C31.1478 45 31.5294 44.842 31.8107 44.5607C32.092 44.2794 32.25 43.8978 32.25 43.5C32.25 43.1022 32.092 42.7206 31.8107 42.4393C31.5294 42.158 31.1478 42 30.75 42H30C29.8011 42 29.6103 41.921 29.4697 41.7803C29.329 41.6397 29.25 41.4489 29.25 41.25C29.25 41.0511 29.329 40.8603 29.4697 40.7197C29.6103 40.579 29.8011 40.5 30 40.5H30.75C31.5456 40.5 32.3087 40.8161 32.8713 41.3787C33.4339 41.9413 33.75 42.7044 33.75 43.5C33.75 44.2956 33.4339 45.0587 32.8713 45.6213C32.3087 46.1839 31.5456 46.5 30.75 46.5Z" fill="#ED323D"/>
<path d="M12 48H4.5C4.30109 48 4.11032 47.921 3.96967 47.7803C3.82902 47.6397 3.75 47.4489 3.75 47.25V26.25C3.75 26.0511 3.82902 25.8603 3.96967 25.7197C4.11032 25.579 4.30109 25.5 4.5 25.5H12C12.1989 25.5 12.3897 25.579 12.5303 25.7197C12.671 25.8603 12.75 26.0511 12.75 26.25V47.25C12.75 47.4489 12.671 47.6397 12.5303 47.7803C12.3897 47.921 12.1989 48 12 48ZM5.25 46.5H11.25V27H5.25V46.5Z" fill="#ED323D"/>
<path d="M15.3 19.5C14.9134 19.5008 14.5418 19.3506 14.2643 19.0815L12 16.8998L9.73576 19.0815C9.48249 19.3255 9.15115 19.4722 8.80023 19.4957C8.4493 19.5192 8.10138 19.4179 7.81787 19.2097C7.53437 19.0016 7.33353 18.7 7.2508 18.3581C7.16808 18.0163 7.20879 17.6562 7.36576 17.3415L8.71576 14.6415L6.18751 13.6328C5.91011 13.5228 5.67228 13.3319 5.50504 13.0848C5.33781 12.8377 5.24893 12.5459 5.25001 12.2475V11.9918C5.2506 11.5963 5.40796 11.2172 5.68759 10.9376C5.96722 10.658 6.34631 10.5006 6.74176 10.5H9.88501L10.395 7.95C10.4639 7.61232 10.647 7.30868 10.9135 7.09014C11.18 6.87159 11.5136 6.75148 11.8583 6.75H12.1283C12.4787 6.7497 12.818 6.87282 13.0866 7.09774C13.3553 7.32266 13.5362 7.63502 13.5975 7.98L14.0475 10.5143L17.25 10.5H17.2553C17.4517 10.4996 17.6462 10.538 17.8277 10.613C18.0093 10.688 18.1742 10.798 18.3131 10.9369C18.452 11.0758 18.5621 11.2407 18.637 11.4223C18.712 11.6038 18.7504 11.7983 18.75 11.9948V12.2475C18.7512 12.5461 18.6622 12.8381 18.4946 13.0853C18.3271 13.3324 18.0888 13.5233 17.811 13.6328L15.285 14.6438L16.635 17.3438C16.7479 17.5712 16.801 17.8236 16.7891 18.0773C16.7772 18.3309 16.7009 18.5773 16.5672 18.7932C16.4335 19.009 16.247 19.1873 16.0253 19.3109C15.8035 19.4346 15.5539 19.4997 15.3 19.5ZM8.70751 18.0113L11.4825 15.3158C11.6223 15.181 11.8089 15.1057 12.003 15.1057C12.1972 15.1057 12.3837 15.181 12.5235 15.3158L15.3045 18L13.5795 14.583C13.5332 14.4902 13.5066 14.3889 13.5015 14.2853C13.4963 14.1818 13.5127 14.0783 13.5495 13.9814C13.5864 13.8845 13.643 13.7963 13.7156 13.7223C13.7883 13.6484 13.8755 13.5903 13.9718 13.5518L17.2553 12.2378L17.25 11.9948L13.425 12.0158C13.249 12.0157 13.0787 11.9537 12.9438 11.8408C12.8089 11.7278 12.718 11.571 12.687 11.3978L12.1253 8.24325L11.8628 8.25L11.2395 11.4C11.2048 11.5702 11.1121 11.723 10.9772 11.8324C10.8423 11.9418 10.6737 12.0011 10.5 12H6.74176L6.75001 12.2475L10.029 13.554C10.1253 13.5925 10.2125 13.6506 10.2851 13.7246C10.3578 13.7985 10.4144 13.8867 10.4512 13.9836C10.4881 14.0805 10.5045 14.184 10.4993 14.2876C10.4941 14.3911 10.4676 14.4925 10.4213 14.5853L8.70751 18.0113Z" fill="#ED323D"/>
<path d="M40.8 19.5C40.4134 19.5008 40.0418 19.3506 39.7643 19.0815L37.5 16.8998L35.2358 19.0815C34.9825 19.3255 34.6511 19.4722 34.3002 19.4957C33.9493 19.5192 33.6014 19.4179 33.3179 19.2097C33.0344 19.0016 32.8335 18.7 32.7508 18.3581C32.6681 18.0163 32.7088 17.6562 32.8658 17.3415L34.2158 14.6415L31.6883 13.6305C31.4111 13.5208 31.1733 13.3303 31.006 13.0836C30.8386 12.8369 30.7494 12.5456 30.75 12.2475V11.9918C30.7506 11.5963 30.908 11.2172 31.1876 10.9376C31.4672 10.658 31.8463 10.5006 32.2418 10.5H35.385L35.895 7.95C35.9639 7.61232 36.147 7.30868 36.4135 7.09014C36.68 6.87159 37.0136 6.75148 37.3583 6.75H37.6283C37.9786 6.7497 38.3179 6.87282 38.5866 7.09774C38.8553 7.32266 39.0362 7.63502 39.0975 7.98L39.5475 10.5143L42.75 10.5H42.7553C42.9517 10.4996 43.1462 10.538 43.3277 10.613C43.5093 10.688 43.6742 10.798 43.8131 10.9369C43.952 11.0758 44.062 11.2407 44.137 11.4223C44.212 11.6038 44.2504 11.7983 44.25 11.9948V12.2475C44.2512 12.5461 44.1622 12.8381 43.9946 13.0853C43.8271 13.3324 43.5888 13.5233 43.311 13.6328L40.785 14.6438L42.135 17.3438C42.2479 17.5712 42.301 17.8236 42.2891 18.0773C42.2772 18.3309 42.2008 18.5773 42.0672 18.7932C41.9335 19.009 41.747 19.1873 41.5253 19.3109C41.3035 19.4346 41.0539 19.4997 40.8 19.5ZM34.2075 18.0113L36.9825 15.3158C37.1223 15.181 37.3089 15.1057 37.503 15.1057C37.6971 15.1057 37.8837 15.181 38.0235 15.3158L40.8045 18L39.0795 14.583C39.0332 14.4902 39.0066 14.3889 39.0015 14.2853C38.9963 14.1818 39.0127 14.0783 39.0495 13.9814C39.0864 13.8845 39.1429 13.7963 39.2156 13.7223C39.2883 13.6484 39.3755 13.5903 39.4718 13.5518L42.7553 12.2378L42.75 11.9948L38.925 12.0158C38.749 12.0157 38.5787 11.9537 38.4438 11.8408C38.3089 11.7278 38.218 11.571 38.187 11.3978L37.6253 8.24325L37.3628 8.25L36.7395 11.4C36.7048 11.5702 36.6121 11.723 36.4772 11.8324C36.3423 11.9418 36.1737 12.0011 36 12H32.2418L32.25 12.2475L35.529 13.554C35.6253 13.5925 35.7125 13.6506 35.7851 13.7246C35.8578 13.7985 35.9144 13.8867 35.9512 13.9836C35.9881 14.0805 36.0045 14.184 35.9993 14.2876C35.9941 14.3911 35.9676 14.4925 35.9213 14.5853L34.2075 18.0113Z" fill="#ED323D"/>
<path d="M28.7813 15C28.4288 14.9995 28.0869 14.8795 27.8115 14.6595L24.75 12.2108L21.6885 14.6595C21.5173 14.7879 21.3222 14.8807 21.1145 14.9323C20.9069 14.9839 20.691 14.9933 20.4796 14.9599C20.2683 14.9265 20.0657 14.8511 19.8841 14.738C19.7024 14.625 19.5453 14.4766 19.422 14.3018C19.2799 14.0874 19.1934 13.8411 19.1703 13.585C19.1473 13.3288 19.1884 13.071 19.29 12.8348L20.739 9.45375L17.5613 8.39475C17.252 8.29171 16.983 8.09388 16.7925 7.82934C16.602 7.5648 16.4997 7.24699 16.5 6.921V6.696C16.5016 6.32258 16.637 5.9621 16.8817 5.68C17.1263 5.3979 17.4641 5.21287 17.8335 5.1585L21.9353 4.575L23.1053 1.0635C23.2079 0.753805 23.4056 0.484347 23.6701 0.293424C23.9347 0.102502 24.2527 -0.000170612 24.579 5.55004e-07H24.921C25.2471 -0.000275155 25.565 0.102179 25.8295 0.292816C26.0941 0.483454 26.2918 0.752585 26.3948 1.062L27.5647 4.575L31.6665 5.16075C32.0357 5.21508 32.3732 5.39989 32.6178 5.68168C32.8625 5.96347 32.9981 6.32359 33 6.69675V6.92175C33.0003 7.24783 32.8978 7.56571 32.7072 7.83026C32.5165 8.09481 32.2474 8.29259 31.938 8.3955L28.7603 9.4545L30.2093 12.8355C30.3102 13.0718 30.351 13.3294 30.3279 13.5852C30.3049 13.8411 30.2188 14.0873 30.0773 14.3018C29.9359 14.5162 29.7434 14.6923 29.5172 14.8141C29.291 14.936 29.0382 14.9998 28.7813 15ZM20.6693 13.425C20.6651 13.4329 20.6633 13.4419 20.6641 13.4508C20.6649 13.4597 20.6682 13.4682 20.6738 13.4752L21.2198 14.0753L20.7518 13.4895L24.2813 10.6658C24.4143 10.5592 24.5796 10.5012 24.75 10.5012C24.9204 10.5012 25.0857 10.5592 25.2188 10.6658L28.7483 13.4895L28.8233 13.4775L27.0578 9.297C27.0168 9.20177 26.996 9.09909 26.9967 8.99543C26.9975 8.89176 27.0197 8.78938 27.062 8.69473C27.1042 8.60009 27.1657 8.51523 27.2424 8.44553C27.3191 8.37582 27.4095 8.32278 27.5077 8.28975L31.4633 6.975L31.5 6.69675L26.8935 5.9925C26.7556 5.97275 26.626 5.915 26.5191 5.82572C26.4122 5.73644 26.3322 5.61915 26.2882 5.487L24.975 1.53675L24.579 1.5L23.2118 5.487C23.1678 5.61915 23.0878 5.73644 22.9809 5.82572C22.874 5.915 22.7444 5.97275 22.6065 5.9925L18.0458 6.6435L18 6.921L21.987 8.28825C22.0853 8.32128 22.1756 8.37432 22.2523 8.44403C22.3291 8.51373 22.3905 8.59859 22.4328 8.69323C22.4751 8.78788 22.4973 8.89027 22.498 8.99393C22.4987 9.09759 22.478 9.20027 22.437 9.2955L20.6693 13.425Z" fill="#ED323D"/>
</g>
<defs>
<clipPath id="clip0_1_388">
<rect width="48" height="48" fill="white"/>
</clipPath>
</defs>
</svg>
